<svg width="600" height="600" viewBox="0 0 600 600" fill="none" xmlns="http://www.w3.org/2000/svg" preserveAspectRatio="xMidYMid meet">
  <style>
    :root {
      --text-color: #000000;
    }
    @media (prefers-color-scheme: dark) {
      :root {
        --text-color: #FFFFFF;
      }
    }
  </style>
  
  <!-- Background (optional, can be removed for transparent background) -->
  <rect width="600" height="600" fill="none" />
  
  <!-- Terminal prefix ">_" in blue -->
  <g fill="#2D5BFF">
    <!-- ">" character -->
    <path d="M180 250L240 300L180 350L160 330L200 300L160 270L180 250Z" fill="#2D5BFF" stroke="#2D5BFF" stroke-width="2"/>
    <!-- "_" character -->
    <path d="M260 350H360V370H260V350Z" fill="#2D5BFF" stroke="#2D5BFF" stroke-width="2"/>
  </g>
  
  <!-- "Tenvy" text with "env" in blue -->
  <g>
    <!-- "T" character -->
    <path d="M120 400H200V420H170V500H150V420H120V400Z" fill="var(--text-color)" stroke="var(--text-color)" stroke-width="2"/>
    <!-- "env" in blue -->
    <g fill="#2D5BFF" stroke="#2D5BFF" stroke-width="2">
      <!-- "e" character -->
      <path d="M220 440H280V460H240V470H280V490H240V500H220V440Z"/>
      <!-- "n" character -->
      <path d="M300 440H320V450H330V440H350V450H360V500H340V460H320V500H300V440Z"/>
      <!-- "v" character -->
      <path d="M380 440H400L420 500H400L390 460L380 500H360L380 440Z"/>
    </g>
    <!-- "y" character -->
    <path d="M440 440H460V480H480V440H500V500H480V520H460V500H440V440Z" fill="var(--text-color)" stroke="var(--text-color)" stroke-width="2"/>
  </g>
</svg>
